<svg xmlns="http://www.w3.org/2000/svg" xmlns:xlink="http://www.w3.org/1999/xlink" width="2000" zoomAndPan="magnify" viewBox="0 0 1500 1499.999933" height="2000" preserveAspectRatio="xMidYMid meet" version="1.0"><defs><clipPath id="d08ca356f1"><path d="M 106 105 L 1381 105 L 1381 1370 L 106 1370 Z M 106 105 " clip-rule="nonzero"/></clipPath><clipPath id="3d4a79d85a"><path d="M 607.566406 -67.636719 L 1560.269531 645.167969 L 873.269531 1563.386719 L -79.433594 850.582031 Z M 607.566406 -67.636719 " clip-rule="nonzero"/></clipPath><clipPath id="839a630ee9"><path d="M 962.144531 1329.425781 C 966.132812 1329.046875 970.339844 1328.824219 974.328125 1328.441406 C 974.597656 1328.980469 974.492188 1329.574219 974.761719 1330.113281 C 973.523438 1330.871094 972.175781 1332.21875 970.882812 1332.597656 C 922.164062 1344.621094 874.691406 1362.628906 824.34375 1367.378906 C 754.054688 1374.035156 686.65625 1361.984375 621.234375 1336.9375 C 552.148438 1310.496094 489.355469 1272.941406 429.464844 1230.152344 C 346.808594 1171.003906 271.367188 1104.460938 208.039062 1024.425781 C 178.886719 987.800781 153.773438 948.476562 134.855469 905.371094 C 103.289062 833.277344 98.730469 758.835938 116.644531 682.695312 C 131.023438 620.738281 157.046875 563.457031 189.003906 508.59375 C 231.292969 435.878906 289.765625 356.375 350.925781 288.578125 C 414.511719 219.339844 489.542969 166.746094 575.484375 129.71875 C 629.851562 106.097656 686.558594 100.046875 745.113281 109.523438 C 785.335938 116.050781 825.667969 121.988281 863.097656 138.550781 C 881.816406 146.828125 899.617188 156.78125 917.742188 166.304688 C 919.414062 167.21875 920.816406 168.941406 921.679688 170.933594 C 900.699219 161.632812 879.558594 152.546875 858.574219 143.246094 C 858.308594 144.054688 857.824219 144.703125 857.554688 145.511719 C 870.664062 152.289062 883.929688 158.847656 896.878906 165.84375 C 970.402344 205.703125 1038.488281 253.28125 1103.402344 305.550781 C 1163.566406 354.265625 1220.554688 406.332031 1270.328125 465.789062 C 1309.140625 511.996094 1341.382812 562.039062 1361.613281 619.589844 C 1389.25 697.835938 1385.242188 775.628906 1359.078125 853.34375 C 1338.074219 916.0625 1307.144531 974.050781 1270.765625 1028.972656 C 1225.324219 1095.558594 1187.324219 1144.097656 1145.433594 1187.488281 C 1091.804688 1242.96875 1033.207031 1292.039062 963.707031 1326.890625 C 963.003906 1327.378906 962.304688 1327.863281 961.605469 1328.351562 C 961.820312 1328.511719 962.089844 1329.050781 962.144531 1329.425781 Z M 1050.597656 281.191406 C 1019.035156 259.933594 987.796875 238.242188 955.96875 217.796875 C 908.277344 187.5 859.136719 160.496094 805.152344 142.660156 C 771.984375 131.648438 738.011719 123.0625 702.597656 124.503906 C 656.238281 126.175781 611.449219 136.09375 568.34375 153.664062 C 527.929688 169.882812 492.8125 194.773438 459.421875 222.308594 C 391.398438 278.128906 335.140625 344.769531 272.425781 435.34375 C 236.691406 488.054688 206.1875 543.667969 184.425781 603.804688 C 147.078125 706.8125 145.527344 809.671875 187.964844 911.78125 C 220.019531 988.617188 269.046875 1053.574219 328.519531 1110.863281 C 395.332031 1174.988281 469.734375 1228.972656 550.757812 1274.109375 C 625.253906 1315.371094 704.367188 1340.5625 789.707031 1343.480469 C 830.140625 1344.78125 870.246094 1343.820312 909.476562 1330.082031 C 967.191406 1309.636719 1018.796875 1278.902344 1066.085938 1240.894531 C 1141.109375 1180.214844 1203.128906 1108.121094 1267.832031 1008.597656 C 1301.246094 955.835938 1328.675781 900.277344 1347.042969 840.632812 C 1372.390625 757.261719 1369.65625 675.429688 1333.875 595.472656 C 1313.121094 548.972656 1284.769531 507.226562 1252.054688 468.613281 C 1192.1875 397.898438 1123.4375 337.710938 1050.597656 281.191406 Z M 271.925781 1074.917969 C 247.472656 1044.164062 223.929688 1013.085938 203.730469 979.792969 C 133.515625 863.972656 118.980469 741.667969 163.628906 613.152344 C 181.839844 560.464844 207.875 511.269531 236.230469 463.472656 C 235.367188 464.175781 234.722656 465.039062 234.078125 465.902344 C 227.78125 475.664062 221.648438 485.214844 215.566406 495.140625 C 182.152344 550.597656 154.511719 608.691406 138.789062 671.996094 C 117.96875 754.714844 122.808594 835.089844 159.070312 913.050781 C 178.363281 954.753906 203.3125 992.949219 232.519531 1028.601562 C 244.9375 1043.949219 258.703125 1059.300781 271.925781 1074.917969 Z M 271.925781 1074.917969 " clip-rule="nonzero"/></clipPath><clipPath id="a9bbb05a40"><path d="M 0 0 L 1275 0 L 1275 1265 L 0 1265 Z M 0 0 " clip-rule="nonzero"/></clipPath><clipPath id="4e34016c7e"><path d="M 501.566406 -172.636719 L 1454.269531 540.167969 L 767.269531 1458.386719 L -185.433594 745.582031 Z M 501.566406 -172.636719 " clip-rule="nonzero"/></clipPath><clipPath id="484393c63f"><path d="M 856.144531 1224.425781 C 860.132812 1224.046875 864.339844 1223.824219 868.328125 1223.441406 C 868.597656 1223.980469 868.492188 1224.574219 868.761719 1225.113281 C 867.523438 1225.871094 866.175781 1227.21875 864.882812 1227.597656 C 816.164062 1239.621094 768.691406 1257.628906 718.34375 1262.378906 C 648.054688 1269.035156 580.65625 1256.984375 515.234375 1231.9375 C 446.148438 1205.496094 383.355469 1167.941406 323.464844 1125.152344 C 240.808594 1066.003906 165.367188 999.460938 102.039062 919.425781 C 72.886719 882.800781 47.773438 843.476562 28.855469 800.371094 C -2.710938 728.277344 -7.269531 653.835938 10.644531 577.695312 C 25.023438 515.738281 51.046875 458.457031 83.003906 403.59375 C 125.292969 330.878906 183.765625 251.375 244.925781 183.578125 C 308.511719 114.339844 383.542969 61.746094 469.484375 24.71875 C 523.851562 1.097656 580.558594 -4.953125 639.113281 4.523438 C 679.335938 11.050781 719.667969 16.988281 757.097656 33.550781 C 775.816406 41.828125 793.617188 51.78125 811.742188 61.304688 C 813.414062 62.21875 814.816406 63.941406 815.679688 65.933594 C 794.699219 56.632812 773.558594 47.546875 752.574219 38.246094 C 752.308594 39.054688 751.824219 39.703125 751.554688 40.511719 C 764.664062 47.289062 777.929688 53.847656 790.878906 60.84375 C 864.402344 100.703125 932.488281 148.28125 997.402344 200.550781 C 1057.566406 249.265625 1114.554688 301.332031 1164.328125 360.789062 C 1203.140625 406.996094 1235.382812 457.039062 1255.613281 514.589844 C 1283.25 592.835938 1279.242188 670.628906 1253.078125 748.34375 C 1232.074219 811.0625 1201.144531 869.050781 1164.765625 923.972656 C 1119.324219 990.558594 1081.324219 1039.097656 1039.433594 1082.488281 C 985.804688 1137.96875 927.207031 1187.039062 857.707031 1221.890625 C 857.003906 1222.378906 856.304688 1222.863281 855.605469 1223.351562 C 855.820312 1223.511719 856.089844 1224.050781 856.144531 1224.425781 Z M 944.597656 176.191406 C 913.035156 154.933594 881.796875 133.242188 849.96875 112.796875 C 802.277344 82.5 753.136719 55.496094 699.152344 37.660156 C 665.984375 26.648438 632.011719 18.0625 596.597656 19.503906 C 550.238281 21.175781 505.449219 31.09375 462.34375 48.664062 C 421.929688 64.882812 386.8125 89.773438 353.421875 117.308594 C 285.398438 173.128906 229.140625 239.769531 166.425781 330.34375 C 130.691406 383.054688 100.1875 438.667969 78.425781 498.804688 C 41.078125 601.8125 39.527344 704.671875 81.964844 806.78125 C 114.019531 883.617188 163.046875 948.574219 222.519531 1005.863281 C 289.332031 1069.988281 363.734375 1123.972656 444.757812 1169.109375 C 519.253906 1210.371094 598.367188 1235.5625 683.707031 1238.480469 C 724.140625 1239.78125 764.246094 1238.820312 803.476562 1225.082031 C 861.191406 1204.636719 912.796875 1173.902344 960.085938 1135.894531 C 1035.109375 1075.214844 1097.128906 1003.121094 1161.832031 903.597656 C 1195.246094 850.835938 1222.675781 795.277344 1241.042969 735.632812 C 1266.390625 652.261719 1263.65625 570.429688 1227.875 490.472656 C 1207.121094 443.972656 1178.769531 402.226562 1146.054688 363.613281 C 1086.1875 292.898438 1017.4375 232.710938 944.597656 176.191406 Z M 165.925781 969.917969 C 141.472656 939.164062 117.929688 908.085938 97.730469 874.792969 C 27.515625 758.972656 12.980469 636.667969 57.628906 508.152344 C 75.839844 455.464844 101.875 406.269531 130.230469 358.472656 C 129.367188 359.175781 128.722656 360.039062 128.078125 360.902344 C 121.78125 370.664062 115.648438 380.214844 109.566406 390.140625 C 76.152344 445.597656 48.511719 503.691406 32.789062 566.996094 C 11.96875 649.714844 16.808594 730.089844 53.070312 808.050781 C 72.363281 849.753906 97.3125 887.949219 126.519531 923.601562 C 138.9375 938.949219 152.703125 954.300781 165.925781 969.917969 Z M 165.925781 969.917969 " clip-rule="nonzero"/></clipPath><clipPath id="43391def94"><rect x="0" width="1275" y="0" height="1265"/></clipPath></defs><g clip-path="url(#d08ca356f1)"><g clip-path="url(#3d4a79d85a)"><g clip-path="url(#839a630ee9)"><g transform="matrix(1, 0, 0, 1, 106, 105)"><g clip-path="url(#43391def94)"><g clip-path="url(#a9bbb05a40)"><g clip-path="url(#4e34016c7e)"><g clip-path="url(#484393c63f)"><path fill="#d7d2cb" d="M 514.867188 -307.25 L 1594.746094 500.703125 L 773.894531 1597.820312 L -305.984375 789.871094 Z M 514.867188 -307.25 " fill-opacity="1" fill-rule="nonzero"/></g></g></g></g></g></g></g></g><path fill="#d7d2cb" d="M 750.390625 244.773438 C 772.996094 244.796875 792.136719 245.757812 807.816406 247.660156 C 903.117188 259.308594 987.039062 293.136719 1059.574219 349.140625 C 1113.351562 390.667969 1156.730469 440.808594 1189.707031 499.570312 C 1223.695312 560.136719 1244.527344 623.152344 1252.207031 688.621094 C 1260.855469 762.351562 1254.351562 833.105469 1232.699219 900.878906 C 1166.492188 1108.1875 968.910156 1256.640625 749.691406 1256.488281 C 530.441406 1256.308594 333.101562 1107.609375 267.167969 900.210938 C 245.617188 832.394531 239.214844 761.632812 247.964844 687.921875 C 255.742188 622.453125 276.667969 559.46875 310.738281 498.964844 C 343.796875 440.242188 387.242188 390.160156 441.082031 348.71875 C 513.699219 292.8125 597.660156 259.09375 692.964844 247.570312 C 708.640625 245.6875 727.785156 244.753906 750.390625 244.773438 Z M 749.175781 1040.460938 C 749.335938 1040.828125 749.425781 1041.554688 749.449219 1042.648438 C 749.75 1067.808594 749.539062 1096.582031 748.808594 1128.96875 C 748.546875 1140.414062 752.648438 1148.121094 761.113281 1152.089844 C 770.128906 1156.304688 778.210938 1155.847656 785.359375 1150.722656 C 904.28125 1065.792969 972.140625 1017.53125 988.929688 1005.945312 C 1023.101562 982.390625 1046.589844 963.945312 1059.390625 950.617188 C 1110.585938 897.324219 1142.003906 831.027344 1146.136719 757.984375 C 1151.757812 658.328125 1107.15625 565.324219 1028.460938 504.070312 C 990.5 474.515625 947.8125 455.324219 900.394531 446.492188 C 881.292969 442.925781 848.550781 441.296875 802.164062 441.601562 C 751.21875 441.925781 709.433594 441.945312 676.800781 441.660156 C 634.261719 441.296875 596.160156 444.335938 560.125 456.914062 C 495.167969 479.558594 443.878906 518.257812 406.265625 573.007812 C 371.625 623.414062 353.519531 680.445312 353.335938 740.941406 C 353.214844 785.199219 363.28125 828.242188 383.535156 870.070312 C 432.546875 971.25 536.972656 1038.515625 650.488281 1038.914062 C 684.984375 1039.035156 716.917969 1038.921875 746.289062 1038.578125 C 746.914062 1038.566406 747.488281 1038.734375 748.015625 1039.078125 C 748.539062 1039.417969 748.925781 1039.882812 749.175781 1040.460938 Z M 749.175781 1040.460938 " fill-opacity="1" fill-rule="nonzero"/><path fill="#d7d2cb" d="M 749.996094 814.074219 C 766.726562 814.09375 780.378906 812.839844 790.953125 810.304688 C 838.632812 798.921875 877.320312 774.484375 907.015625 736.988281 C 914.1875 727.9375 919.597656 722.699219 923.242188 721.28125 C 933.753906 717.269531 942.65625 716.054688 952.925781 721.070312 C 972.585938 730.671875 978.023438 755.617188 963.683594 773.664062 C 910.785156 840.324219 835.371094 880.523438 749.996094 880.460938 C 664.585938 880.429688 589.203125 840.203125 536.367188 773.480469 C 522.054688 755.433594 527.496094 730.488281 547.152344 720.886719 C 557.453125 715.902344 566.355469 717.117188 576.835938 721.128906 C 580.484375 722.546875 585.890625 727.792969 593.0625 736.867188 C 622.71875 774.382812 661.386719 798.851562 709.066406 810.277344 C 719.640625 812.808594 733.285156 814.074219 749.996094 814.074219 Z M 749.996094 814.074219 " fill-opacity="1" fill-rule="nonzero"/></svg>